<?xml version="1.0" encoding="utf-8"?>
<!-- Generator: Adobe Illustrator 23.0.0, SVG Export Plug-In . SVG Version: 6.00 Build 0)  -->
<svg version="1.1" xmlns="http://www.w3.org/2000/svg" xmlns:xlink="http://www.w3.org/1999/xlink" x="0px" y="0px"
	 viewBox="0 0 1920 925" style="enable-background:new 0 0 1920 925;" xml:space="preserve">
<style type="text/css">
	.st0{fill:#F2F2F2;stroke:#FFFFFF;stroke-width:3.1676;stroke-miterlimit:10;}
	.st1{opacity:0.04;}
	.st2{fill:#FEFEFE;}
	.st3{fill:#707070;}
	.st4{fill:#949494;}
	.st5{fill:#939393;}
	.st6{fill:#909090;}
	.st7{fill:#9E9E9E;}
	.st8{fill:#8D8D8D;}
	.st9{fill:#8B8B8B;}
	.st10{fill:#858585;}
	.st11{fill:#787878;}
	.st12{fill:#818181;}
	.st13{fill:#9F9F9F;}
	.st14{fill:#F9F9F9;}
	.st15{fill:#A1A1A1;}
	.st16{fill:#F5F5F5;}
	.st17{fill:#EBEBEB;}
	.st18{fill:#FBFBFB;}
	.st19{fill:#AEAEAE;}
	.st20{fill:#B4B4B4;}
	.st21{fill:#EDEDED;}
	.st22{fill:#C3C3C3;}
	.st23{fill:#7D7D7D;}
	.st24{fill:#FDFDFD;}
	.st25{fill:#F8F8F8;}
	.st26{fill:#D4D4D4;}
	.st27{fill:#AFAFAF;}
	.st28{fill:#E2E2E2;}
	.st29{fill:#D7D7D7;}
	.st30{fill:url(#SVGID_1_);stroke:#FFFFFF;stroke-width:0.25;stroke-miterlimit:10;}
	.st31{fill:url(#SVGID_2_);stroke:#FFFFFF;stroke-width:0.25;stroke-miterlimit:10;}
	.st32{fill:url(#SVGID_3_);stroke:#FFFFFF;stroke-width:0.25;stroke-miterlimit:10;}
	.st33{fill:url(#SVGID_4_);stroke:#FFFFFF;stroke-width:0.25;stroke-miterlimit:10;}
	.st34{fill:url(#SVGID_5_);stroke:#FFFFFF;stroke-width:0.25;stroke-miterlimit:10;}
	.st35{opacity:0.41;}
	.st36{fill:url(#SVGID_6_);stroke:#FFFFFF;stroke-width:0.2503;stroke-miterlimit:10;}
	.st37{fill:url(#SVGID_7_);stroke:#FFFFFF;stroke-width:0.2503;stroke-miterlimit:10;}
	.st38{fill:url(#SVGID_8_);stroke:#FFFFFF;stroke-width:0.2503;stroke-miterlimit:10;}
	.st39{fill:url(#SVGID_9_);stroke:#FFFFFF;stroke-width:0.2503;stroke-miterlimit:10;}
	.st40{fill:url(#SVGID_10_);stroke:#FFFFFF;stroke-width:0.2503;stroke-miterlimit:10;}
	.st41{fill:url(#SVGID_11_);stroke:#FFFFFF;stroke-width:0.2503;stroke-miterlimit:10;}
	.st42{fill:url(#SVGID_12_);stroke:#FFFFFF;stroke-width:0.2503;stroke-miterlimit:10;}
	.st43{fill:url(#SVGID_13_);stroke:#FFFFFF;stroke-width:0.2503;stroke-miterlimit:10;}
	.st44{fill:url(#SVGID_14_);stroke:#FFFFFF;stroke-width:0.2503;stroke-miterlimit:10;}
	.st45{fill:url(#SVGID_15_);stroke:#FFFFFF;stroke-width:0.2503;stroke-miterlimit:10;}
	.st46{fill:url(#SVGID_16_);stroke:#FFFFFF;stroke-width:0.2503;stroke-miterlimit:10;}
	.st47{fill:url(#SVGID_17_);stroke:#FFFFFF;stroke-width:0.2503;stroke-miterlimit:10;}
	.st48{fill:url(#SVGID_18_);stroke:#FFFFFF;stroke-width:0.2503;stroke-miterlimit:10;}
	.st49{fill:url(#SVGID_19_);stroke:#FFFFFF;stroke-width:0.2503;stroke-miterlimit:10;}
	.st50{fill:url(#SVGID_20_);stroke:#FFFFFF;stroke-width:0.2503;stroke-miterlimit:10;}
	.st51{fill:url(#SVGID_21_);stroke:#FFFFFF;stroke-width:0.2503;stroke-miterlimit:10;}
	.st52{fill:url(#SVGID_22_);stroke:#FFFFFF;stroke-width:0.2503;stroke-miterlimit:10;}
	.st53{fill:url(#SVGID_23_);stroke:#FFFFFF;stroke-width:0.2503;stroke-miterlimit:10;}
</style>
<g id="Слой_2">
	<rect x="1.58" y="-1.5" class="st0" width="1916.84" height="928"/>
	<g class="st1">
		<g>
			<g>
				<path class="st2" d="M916.82,660.59c-123.66,0-247.32-0.01-370.98,0.05c-2.54,0-3.21-0.43-3.21-2.69
					c0.08-129.54,0.08-259.08-0.02-388.62c0-2.55,0.83-2.79,3.46-2.79c247.44,0.06,494.87,0.06,742.31-0.01
					c2.76,0,3.39,0.41,3.39,2.85c-0.09,129.44-0.09,258.88,0.01,388.32c0,2.7-0.94,2.94-3.64,2.94
					C1164.37,660.58,1040.59,660.59,916.82,660.59z"/>
				<path class="st3" d="M951.63,309.22c-0.04-12.03-0.05-24.05-0.16-36.08c-0.02-1.89,0.96-2.33,2.92-2.33
					c27.6,0.03,55.2,0.04,82.8-0.02c2.58-0.01,3.03,0.94,3.02,2.85c-0.07,12.32-0.03,24.65-0.03,36.97c0,35,0,70,0,105.01
					c0,1.13,0,2.26,0,3.39c1.15-0.03,1.34-0.55,1.64-0.94c4.88-6.43,9.64-12.94,14.66-19.3c7.97-10.11,15.66-20.37,23.5-30.54
					c6.2-8.03,12.38-16.07,18.61-24.09c8.4-10.81,16.68-21.68,24.97-32.55c6.84-8.96,13.85-17.84,20.7-26.8
					c2.83-3.69,5.9-7.26,8.5-11.08c1.09-1.61,2.75-1.63,4.46-1.65c8.2-0.1,16.39-0.13,24.59-0.23c22.51-0.28,45.01-0.58,67.52-0.85
					c0.88-0.01,2.05-0.46,2.61,0.24c0.72,0.89-0.4,1.64-0.89,2.35c-8.82,12.79-18.54,25.11-27.58,37.79
					c-6.51,9.14-13.4,18.09-20.05,27.16c-7.82,10.66-15.68,21.29-23.46,31.97c-6.87,9.42-13.9,18.75-20.81,28.16
					c-7.64,10.4-14.89,21.06-23.12,31.08c-4.61,5.62-5.42,9.48,0.1,14.4c1.7,1.51,2.55,3.73,3.75,5.64
					c5.04,7.96,10.68,15.62,16.02,23.43c7.07,10.35,14.21,20.67,21.37,30.97c7.52,10.81,14.91,21.69,22.42,32.51
					c7.1,10.22,14.13,20.47,21.23,30.69c7.28,10.47,14.33,21.06,21.79,31.43c5.48,7.61,10.19,15.6,16.04,23.02
					c2.21,2.8,1.93,3.04-1.88,3.04c-32.33,0.01-64.67-0.01-97,0.05c-2.52,0-3.94-0.72-5.16-2.61c-5.96-9.21-11.88-18.45-18.23-27.46
					c-7.3-10.35-14.27-20.86-21.4-31.29c-7.19-10.52-14.33-21.05-21.54-31.56c-7.44-10.85-14.79-21.75-22.21-32.61
					c-7.19-10.52-14.32-21.07-21.58-31.55c-2.88-4.15-5.59-8.45-9.33-12.37c-0.1,1.72-0.2,3.44-0.3,5.17
					c-1.4,0.77-2.4,0.11-3.32-0.71c-0.88-0.79-1.65-1.67-2.19-2.65c-4.23-7.67-9.52-14.85-14.15-22.32
					c-9.61-15.48-19.69-30.74-29.36-46.19c-4.67-7.47-9.7-14.76-14.27-22.28c-6-9.87-12.35-19.58-18.74-29.27
					c-2.46-3.74-4.4-7.67-6.27-11.64C951.7,320.11,952.11,314.66,951.63,309.22z"/>
				<path class="st4" d="M783.68,460.13c4.96,14.77,8.35,29.89,13.36,44.62c4.08,12.01,7.09,24.27,11.65,36.14
					c2.7,7.02,4.66,14.2,7.3,21.22c3.63,9.67,8.13,19.09,13.7,28.03c5.73,9.19,12.55,17.94,20.87,25.61
					c16.34,15.06,35.54,26.47,58.98,32.11c1.16,0.28,2.53,0.28,3.15,1.48c-72.15-9.11-121.42-44.7-155.64-98.33
					c-1.27,1.88-2.74,3.69-3.81,5.67c-2.6,4.84-4.84,9.82-7.53,14.61c-7.73,13.74-15.21,27.57-22.53,41.48
					c-1.78,3.38-4.02,6.63-5.64,10.09c-0.95,2.04-2.72,2.08-4.76,2.08c-20.9-0.01-41.8-0.01-62.7-0.01c-7.97,0-15.93,0-23.9-0.01
					c-0.9,0-2.03,0.22-2.57-0.54c-0.67-0.95,0.38-1.58,0.96-2.28c0.53-0.64,0.99-1.33,1.39-2.03c5.78-10.18,11.4-20.43,17.35-30.54
					c7.76-13.18,15.39-26.41,23.09-39.61c3.54-6.07,6.78-12.27,10.46-18.28c7.89-12.9,15.21-26.04,22.75-39.09
					c6.93-11.98,14.3-23.78,20.85-35.93c0.81-1.5,2.08-2.81,3.13-4.21c2.43-0.44,2.59,1.32,2.99,2.48c1.36,3.97,2.17,8.03,2.12,12.2
					c-0.03,2.65-0.19,5.31,0.15,7.96c0.11,0.89,0.38,1.83,1.4,2.26c1.42,0.6,1.65-0.69,2.31-1.24c1.68-1.4,3.35-1.54,5.17-0.15
					c1.31,1,2.19,2.27,3.24,3.44c1.42,1.58,2.9,2.77,5.52,1.54c1.77-0.83,3.34-0.07,4.64,1.07c1.12,0.99,2.43,1.63,4.02,1.01
					c3.43-1.33,5.95-0.02,8.4,1.85c5.46,4.17,6.23,3.85,9.26-1.92c2.34-4.46,4.72-8.95,7.92-13.04c1.37-1.75,1.09-3.46,0.97-5.35
					C781.61,462.94,780.16,460.63,783.68,460.13z"/>
				<path class="st5" d="M1010.37,619.12c-12.58-3.63-23.94-9.18-34.43-16.07c-13.83-9.07-25.43-19.84-35-32.34
					c-3.17-4.13-5.9-8.42-8.78-12.66c-5.33-7.87-8.86-16.43-13.35-24.61c-3.82-6.97-6.54-14.32-10.56-21.16
					c-4-6.8-6.51-14.11-10.45-20.89c-4.26-7.33-7.25-15.14-11.64-22.38c-3.56-5.87-6.32-12.03-9.9-17.86
					c-7.1-11.58-14.12-23.23-22.25-34.31c-6.53-8.91-13.61-17.56-21.49-25.66c-9.73-10.01-20.47-19.22-32.65-27.08
					c-5.5-3.55-11.1-7.05-17.27-9.77c-2.13-0.94-2.31-2.03-1.36-3.81c5.16-9.67,10.79-19.16,16.28-28.68
					c3.56-6.17,6.52-12.59,10.56-18.56c1.21-0.71,2.16-0.21,3.1,0.47c1.35,0.97,2.52,2.07,3.15,3.47
					c3.13,6.94,8.26,12.97,12.22,19.52c5.39,8.92,11.03,17.73,16.7,26.52c6.4,9.92,12.76,19.86,19.04,29.84
					c4.58,7.28,9.16,14.58,13.76,21.84c4.65,7.34,9.27,14.74,14.39,21.87c0.36,0.5,0.8,0.98,1.05,1.53
					c3.18,7.02,8.48,13.07,12.38,19.76c4.52,7.74,9.54,15.27,14.43,22.85c7.62,11.81,14.97,23.75,22.63,35.54
					c6.49,9.99,12.74,20.09,19.2,30.1c4.39,6.8,9.06,13.47,12.92,20.55c2.21,4.06,5.48,7.72,7.79,11.81
					c3.85,6.82,8.3,13.41,12.67,19.97c5.01,7.53,8.98,15.56,14.85,22.68c0.93,1.13,1.61,2.39,2.25,3.66
					C1011.28,616.55,1011.64,617.88,1010.37,619.12z"/>
				<path class="st4" d="M999.68,639.61c-19.3,1.05-37.95-1.75-56.12-7.1c-16.94-4.98-32.42-12.2-46.32-21.96
					c-7.24-5.08-13.9-10.57-20.04-16.61c-9.35-9.19-16.96-19.29-23.65-30.03c-3.59-5.77-6.2-11.83-9.36-17.72
					c-5.31-9.91-7.69-20.62-11.9-30.81c-4.3-10.42-7.03-21.24-11.55-31.55c-3.36-7.67-5.7-15.59-9.06-23.23
					c-3.97-9.03-7.51-18.22-12.16-26.99c-3.32-6.25-6.36-12.68-10.51-18.59c-6.17-8.8-12.87-17.32-22.08-24.03
					c-11.24-8.18-24.45-12.85-38.97-14.96c-9.13-1.33-18.31-1.97-27.57-1.9c17.7-1.93,48.62-0.28,66.92,6.12
					c10.23,3.57,19.15,9.03,27.51,15.13c8.98,6.55,16.58,14.14,23.57,22.26c8.78,10.18,16.12,21,22.4,32.45
					c3.87,7.06,6.75,14.44,10.55,21.49c5.1,9.45,8.19,19.41,11.53,29.34c3.15,9.37,6.41,18.75,10.58,27.8
					c3.29,7.13,6.25,14.41,10.17,21.32c6.72,11.86,13.66,23.66,22.01,34.75c6.16,8.18,12.96,16.05,20.73,23.18
					c10.97,10.06,23.11,18.88,37.95,24.73C975.56,637.13,987.28,639.53,999.68,639.61z"/>
				<path class="st6" d="M1010.37,619.12c-1.49-5.64-6.14-9.87-9.14-14.85c-5.64-9.35-11.35-18.67-17.76-27.66
					c-1.37-1.93-2.36-4.05-3.61-6.04c-5.16-8.23-10.22-16.51-15.55-24.67c-7.63-11.7-14.95-23.54-22.49-35.28
					c-6.93-10.78-13.46-21.76-20.71-32.38c-4.87-7.14-8.67-14.77-14.07-21.66c-1.4-1.79-2.26-3.88-3.46-5.78
					c-8.31-13.16-16.45-26.39-25-39.43c-11.66-17.77-22.73-35.8-34.22-53.64c-7.39-11.46-14.5-23.05-21.98-34.47
					c-3.38-5.16-6.86-10.24-9.72-15.63c-0.98-1.84-2.69-3.18-4.58-4.35c3.6-6.47,7.17-12.95,10.84-19.39
					c0.54-0.95,1.5-1.72,2.27-2.57c1.95,0.1,2.67,1.41,3.41,2.62c8.29,13.63,16.96,27.1,25.69,40.52
					c9.24,14.2,18.25,28.52,27.36,42.77c8.89,13.92,17.8,27.84,26.64,41.78c9.06,14.28,17.83,28.7,27.46,42.71
					c4.26,6.2,7.78,12.74,11.89,19.03c9.38,14.36,18.48,28.86,27.6,43.35c10.75,17.09,21.64,34.11,32.57,51.11
					c8.6,13.37,16.44,27.1,25.89,40.07c2.44,3.34,4.18,7.03,6.3,10.53c0.57,0.94,0.88,2.03,2.37,2.9c0.2-2.84,0.02-5.46,0.11-8.08
					c0.16-4.62-0.4-9.24,0.31-13.86c-0.79-10.9,0.06-21.82-0.52-32.71c1.04-2.16,0.18-4.36,0.17-6.53
					c-0.07-8.41,0.29-16.83-0.2-25.24c1.2-3.37-0.34-6.8,0.31-10.17c0.92-2.33-0.48-4.64-0.1-6.97c0.17-1.04-0.23-2.11,0.13-3.15
					c0.78-1.52-0.04-3.04-0.05-4.55c-0.07-6.33-0.16-12.67,0.02-19c0.98-1.29-0.43-3.27,1.68-4.23c0.78,1.51,0.48,3.11,0.48,4.67
					c0,41.45-0.02,82.91-0.03,124.36c0,2.95,0,5.91,0.14,8.86c0.09,1.88-0.61,2.68-2.97,2.5
					C1028.36,623.92,1019.19,622.16,1010.37,619.12z"/>
				<path class="st7" d="M783.68,460.13c-0.16,0.47-0.58,1-0.45,1.4c2.64,7.78-4,12.97-7.39,19.01c-1.63,2.89-2.11,6.21-4.83,8.74
					c-1.33,1.24-2.15,1.19-3.38,0.33c-1.96-1.37-3.9-2.76-5.81-4.18c-2.15-1.6-4.42-2.12-6.88-0.59c-1.95,1.21-3.19,0.89-4.37-0.94
					c-0.87-1.35-2.09-3.4-3.91-0.38c-0.6,1-1.86,0.4-2.79,0.04c-2.43-0.93-3.9-2.68-5.3-4.52c-0.68-0.89-1.48-1.8-2.48-2.41
					c-1.21-0.74-2.12-0.45-2.28,1.02c-0.1,0.9,1.21,2.79-0.58,2.5c-1.87-0.31-4.9,0.23-5.62-2.51c-0.48-1.85-0.66-3.69-0.6-5.57
					c0.22-6.33-0.19-12.59-2.75-18.62c-0.15-0.37-0.43-0.69-0.65-1.04c0.12-2.15-1.93-3.5-2.66-5.33
					c-1.53-3.84-3.79-7.42-3.69-11.77c0.06-2.59-2.02-5.06-4.53-6.73c-4.61-3.07-8.88-6.47-13.58-9.48
					c-8.99-5.76-18.42-10.66-28.92-14.04c-0.39-1.46-2.01-1.19-3.12-1.47c-1.11-0.29-2.31-0.23-1.95-1.67
					c1.08-1.54,2.74-1.17,4.31-0.9c5.13,0.88,9.97,2.56,14.31,4.94c4.06,2.22,8.53,3.38,12.88,4.89c-4.16-1.49-8.51-2.48-12.4-4.65
					c-4.38-2.44-9.3-4.09-14.39-5.22c-1.82-0.4-3.68-0.69-4.92,1.02c-1.64,1.76-4.21,0.08-6.03,1.19c-1.52,0-3.04,0-4.56,0
					c-3.04-1.73-6.59-2.27-9.99-1.93c-3.72,0.37-7.44,0.42-9.85,0.52c2.31-0.12,5.96,0.15,9.56-0.53c0.82-0.15,2.66-0.45,2.31,1.36
					c-10.32,2.22-21.09,0.48-31.43,2.59c-10.66,2.18-20.92,5.28-30.82,9.29c-1.56,0.63-3.15,1.19-4.73,1.78
					c-1.99-0.68-0.69-1.4,0.08-1.88c1.47-0.91,3.23-1.44,4.64-2.45c0.52-0.42,0.48-1.08,0.84-1.57c0.17-0.82,1.17-1.73,0.07-2.42
					c-0.85-0.54-1.7,0.24-2.52,0.52c-5.96,1.97-10.32,6.01-15.66,9.03c0-1.17,1.15-1.57,1.52-2.36c0.79-2,3.61-2.29,4.33-3.78
					c-1.23,1.14-2.83,2.52-5.1,3.12c-7.92,5.92-13.28,13.38-17.66,21.44c-1.13,2.07-1.22,2.03-3.03,1.65
					c0.57-2.45,2.4-4.5,3.21-6.87c-0.53,1.5-0.64,3.25-3.25,3.31c-0.5-2.61,1.78-4.38,2.77-6.54c6.2-13.49,17.6-22.68,32.48-29.31
					c14.08-6.27,29.02-10.63,43.75-15.48c4-1.32,8.21-1.99,12.43-2.58c3.26-2.15,7.24-1.52,10.91-1.95
					c6.09-0.71,12.26-0.73,18.38-1.23c0.72-0.06,1.33-0.24,1.85-0.6c0.09-0.15,0.18-0.32,0.19-0.49c-1.45-1.04-3-0.29-4.5-0.33
					c-1.59-0.04-3.64,0.43-3.9-1.8c7.83-1.76,14.96,1.12,22.31,2.46c18.65,3.41,35.86,9.62,50.63,20.06
					c11.86,8.39,23.27,17.11,31.08,28.85C772.72,436.28,780.14,447.43,783.68,460.13z"/>
				<path class="st8" d="M1040.09,597.85c0,8.16,0,16.32,0,24.78c-2.62-0.66-3.34-2.43-4.24-3.87c-3.86-6.17-7.52-12.4-11.73-18.43
					c-5.43-7.77-9.64-16.16-15-23.97c-9.16-13.34-16.85-27.36-26.17-40.63c-3.73-5.31-6.75-10.99-10.23-16.44
					c-8.46-13.22-17.01-26.39-25.5-39.6c-3.11-4.83-6.34-9.63-9.22-14.55c-6.14-10.49-13.03-20.64-19.62-30.91
					c-11.58-18.05-23.07-36.13-34.61-54.2c-8.89-13.92-17.8-27.84-26.61-41.8c-9.19-14.55-18.14-29.23-27.94-43.5
					c-2.97-4.32-5.36-8.94-8.01-13.42c2.29-4.5,4.57-9,7-13.77c3.33,3.2,5.06,6.69,6.99,10.09c5.27,9.27,10.31,18.65,15.96,27.76
					c3.87,6.24,7.06,12.76,11,18.93c6.32,9.89,12.08,20.02,18.07,30.05c5,8.38,9.64,16.95,14.89,25.17
					c4.51,7.05,7.73,14.65,12.99,21.39c2.96,3.8,4.39,8.46,7.16,12.4c5.15,7.32,8.54,15.37,13.6,22.73
					c3.54,5.15,5.8,10.93,9.29,16.1c4.27,6.31,7.67,12.94,11.31,19.5c0.42,0.75,0.88,1.63,1.83,1.54c1.27-0.12,0.83-1.23,0.86-1.94
					c0.1-2.56,0.1-5.12,0.14-7.68c2.17-1.2,2.94,0.37,3.66,1.5c4.19,6.57,8.92,12.89,12.88,19.56c4.79,8.09,9.75,16.11,15.01,23.95
					c9.33,13.92,18.06,28.12,27.07,42.18c6.58,10.27,13.45,20.41,19.74,30.81C1033.91,586.97,1037.36,592.26,1040.09,597.85z"/>
				<path class="st9" d="M1040.09,597.85c-4.31-2.33-5.62-6.47-7.67-9.98c-5.82-9.96-12.82-19.37-18.66-29.29
					c-8.66-14.69-18.22-28.98-27.47-43.38c-8.64-13.45-16.58-27.25-25.96-40.36c-2.16-3.02-4-6.21-5.97-9.33
					c-0.5-0.79-1-1.56-2.05-1.91c0-11.04,0-22.09,0-33.13c2.54-1.28,3.32,0.67,4.17,1.86c3.31,4.63,6.52,9.31,9.38,14.15
					c8.83,14.96,18.72,29.44,27.95,44.22c7,11.21,13.9,22.48,21.29,33.5c7.69,11.46,14.54,23.3,22.28,34.72
					c1.12,1.66,1.62,3.52,2.71,5.18C1040.08,575.34,1040.09,586.6,1040.09,597.85z"/>
				<path class="st10" d="M1040.08,564.09c-3.93-2.56-5.56-6.48-7.8-9.98c-4.99-7.77-9.46-15.79-14.58-23.48
					c-11.22-16.85-21.86-33.97-32.63-51.03c-9.74-15.42-19.77-30.7-29.68-46.04c-0.78-1.2-1.48-2.48-3.08-3.09
					c-0.36-10.84-0.27-21.69-0.08-32.53c2.77-0.86,3.47,1.17,4.27,2.5c2.48,4.12,5.59,7.94,7.87,12.15
					c4.12,7.62,9.62,14.59,14.04,22.07c4.42,7.47,9.28,14.74,13.95,22.09c11.04,17.4,22.26,34.72,33.19,52.18
					c4.01,6.41,8.01,12.87,12.46,19.09c0.93,1.3,1.13,2.85,2.06,4.14C1040.07,542.8,1040.08,553.44,1040.08,564.09z"/>
				<path class="st11" d="M1040.22,484.23c-0.06,1.39-0.12,2.78-0.18,4.17c-1.44,1.1-2.52,0.48-3.46-0.57
					c-1.12-1.25-2.22-2.53-3.04-3.94c-3.58-6.18-7.79-12.06-11.54-18.15c-8.73-14.2-17.84-28.22-26.8-42.31
					c-10.33-16.25-20.77-32.45-31.06-48.72c-4.1-6.48-8.81-12.69-12-19.58c-0.22-0.47-0.32-0.93-0.32-1.44
					c0-8.17-0.01-16.34,0.02-24.5c0-0.95-0.36-1.97,0.38-2.86c1.67,0.37,2.21,1.61,2.92,2.74c12.34,19.5,24.64,39.02,37.06,58.48
					c10.49,16.43,21.07,32.82,31.43,49.32c4.08,6.5,8.38,12.92,12.34,19.48c1,1.66,2.21,3.25,4.15,4.29
					C1040.17,468.49,1040.2,476.36,1040.22,484.23z"/>
				<path class="st12" d="M1040.05,512.07c0,3.36,0,6.72,0.01,10.07c-1.92,1.29-2.92,0.09-3.87-1.08c-2.31-2.84-3.94-6.02-5.85-9.05
					c-11.68-18.55-23.67-36.96-35.32-55.53c-7.29-11.62-14.4-23.35-22.21-34.72c-6.43-9.35-11.84-19.13-18.06-28.56
					c-1.13-1.72-1.25-3.77-2.66-5.37c0.02-0.32,0.03-0.65,0.05-0.97c-0.66-2.92-0.12-5.86-0.29-8.79c0.24-1.81,1.5-1.38,2.68-0.82
					c0.94,0.44,1.38,1.31,1.83,2.11c8.32,14.51,18.38,28.22,26.92,42.64c3.68,6.21,7.86,12.25,11.85,18.35
					c5.85,8.93,11.54,17.94,17.17,26.97c8.18,13.11,16.86,26,24.98,39.14C1038.41,508.29,1038.6,510.4,1040.05,512.07z"/>
				<path class="st12" d="M952.08,387.83c2.25,1.24,3.3,3.24,4.47,5.15c4.78,7.74,9.29,15.61,14.35,23.21
					c15.15,22.74,29.3,45.94,44.08,68.85c7.16,11.11,14.19,22.28,21.32,33.41c0.92,1.44,1.65,3.09,3.75,3.68
					c0,3.34,0.01,6.67,0.01,10.01c-2.97-1.89-4.56-4.65-6.28-7.32c-10.31-16.03-20.67-32.05-30.73-48.19
					C995,463.72,986.3,451.09,978.57,438c-7.52-12.72-15.93-25.06-24-37.55c-0.6-0.93-1.56-1.68-2.35-2.52
					C952.18,394.57,952.13,391.2,952.08,387.83z"/>
				<path class="st13" d="M622.96,381.39c-0.68,1.08-2.03,1.23-3.18,1.59c-13.49,4.23-26.91,8.61-39.53,14.55
					c-2.91,1.37-5.63,3.04-8.44,4.58c-0.67,0.14-0.91-0.08-0.74-0.64c14.56-10.8,31.3-17.99,49.97-21.98
					c1.21,0.19,0.82,0.79,0.22,1.07c-1.08,0.49-2.21,0.94-3.37,1.06C619.55,381.7,621.12,379.75,622.96,381.39z"/>
				<path class="st12" d="M952.27,377.24c-0.05,3.21-0.09,6.42-0.14,9.62c-0.13-0.77-0.37-1.55-0.37-2.32
					c-0.06-25.11-0.09-50.21-0.13-75.32c1.21,4.41,0.29,8.88,0.57,13.32c0.08,1.26,0.03,2.52,0.04,3.78
					c0.02,9.47,0.04,18.94,0.06,28.4c1.14,1.72,1.54,3.59,1.57,5.53c0.06,4.32,0.09,8.65-0.02,12.97
					C953.81,374.68,953.96,376.24,952.27,377.24z"/>
				<path class="st14" d="M672.15,377.21c-11.28,0.96-22.56,1.92-33.85,2.88c0-0.15,0-0.29,0-0.44c0.84-1.24,2.33-1.39,3.76-1.63
					c2.77-0.48,5.59-0.81,8.23-1.77c1.64-0.51,3.23-1.2,5.07-1c3.55,0.28,7.06,0.45,10.66,0.07
					C668.09,375.08,671.3,373.87,672.15,377.21z"/>
				<path class="st15" d="M629.41,377.77c5.38-2.1,11.2-2.68,16.95-3.37c3.96-0.47,7.99-0.49,11.98-0.72
					c0.38,0.93-0.17,1.82-1.07,1.78c-4.22-0.19-7.78,2.15-11.93,2.08c-4.53,1-9.26,0.29-13.8,1.2
					C630.55,378.94,629.73,378.71,629.41,377.77z"/>
				<path class="st16" d="M629.41,377.77c5.28-0.34,10.56-0.68,15.84-1.02c0.19,0.31,0.16,0.6-0.09,0.88
					c-2.93,1.23-6.19,0.98-9.28,1.47c-1.24,0.2-2.5,0.21-3.73,0.46c-3.11,0.44-5.98,1.74-9.19,1.82c-3.13,0.01-5.97,1.27-9.7,1.82
					c2.67-1.97,5.92-1.81,7.78-3.73C623.68,378.33,626.82,379.04,629.41,377.77z"/>
				<path class="st17" d="M646.4,402.6c-4.31-1.09-8.67-0.5-13.01-0.23c-1.91,0.12-3.81,0.34-5.75,0.01
					c8.12,0.02,15.93-3.31,24.22-1.33c1.33,0.32,2.3,0.87,2.51,2.12C651.66,403.52,649.13,402.07,646.4,402.6z"/>
				<path class="st18" d="M645.25,377.1c0-0.11,0-0.23,0-0.34c4.45-0.77,9.06-1.02,13.09-3.07c0.96,0,1.93,0,2.89,0
					c3.77,1.24,7.88,0.1,11.66,1.25c0.08,0.03,0.14,0.13,0.2,0.2c-0.25,0.14-0.51,0.28-0.76,0.42c-5.76,0.06-11.49,0.95-17.27,0.52
					c-1.42,0.38-2.84,0.77-4.26,1.15C648.94,377.43,647.06,378.41,645.25,377.1z"/>
				<path class="st17" d="M665.34,402.08c1.46,1.2,4.71,0.25,4.89,2.98c-3.77-0.62-7.53-1.24-11.3-1.87
					c-0.44-0.26-0.89-0.52-1.44-0.84c2.29-0.96,4.83,0.3,6.95-0.85C665.13,401.25,665.42,401.46,665.34,402.08z"/>
				<path class="st19" d="M584.97,410.36c0.56,0.84,1.59,0.97,2.69,0.95c-0.51,0.98-1.38,1.07-2.07,1.4
					c-2.72,0.55-5.22,1.52-7.28,3.14c-0.71,0.56-1.54,0.73-2.34,1.04c-0.56,0.12-1.17,0.26-1.41-0.37
					c-0.34-0.88,0.52-1.01,1.12-1.46C578.46,412.99,582.07,412.19,584.97,410.36z"/>
				<path class="st7" d="M645.25,377.1c1.85,0.04,3.71,0.08,5.56,0.12c-3.96,1.58-8.33,1.63-12.5,2.43
					c-2.05-0.33-4.11,0.48-6.16-0.08C636.29,377.89,640.99,378.35,645.25,377.1z"/>
				<path class="st20" d="M546.87,433.99c1.87-1.86,2.75-4.23,4.72-6.12c-0.92,3.44-1.51,6.98-4.67,9.68
					C546.38,436.37,546.82,435.18,546.87,433.99z"/>
				<path class="st21" d="M567.6,414.46c2.36-1.84,4.72-3.68,7.08-5.52c-1,2.93-3.36,4.78-6.31,6.19
					C568.12,414.91,567.86,414.68,567.6,414.46z"/>
				<path class="st17" d="M575.98,416.88c2.68-2.29,5.58-4.18,9.62-4.17c-2.09,1.15-4.67,1.68-6.18,3.56
					C578.44,417.14,577.3,417.4,575.98,416.88z"/>
				<path class="st22" d="M571.08,401.46c0.25,0.21,0.49,0.43,0.74,0.64c-2.3,1.51-4.59,3.02-6.89,4.53
					C566.42,404.39,568.37,402.59,571.08,401.46z"/>
				<path class="st7" d="M757.09,492.89c3.29-3.23,4.65-3.37,8.29-1.17c2.55,1.55,4.57,3.56,6.76,5.43
					c1.12,0.95,1.51,2.05,0.09,3.03c-1.29,0.88-2.35,0.3-3.21-0.66c-1.63-1.82-4.68-2.22-5.62-5.01
					C762.9,493.05,759.47,493.54,757.09,492.89z"/>
				<path class="st23" d="M952.27,377.24c0.01-7.5,0.01-15.01,0.02-22.51c1.36,0.52,2.07,1.54,2.74,2.58
					c4.22,6.56,8.44,13.12,12.61,19.71c13.17,20.8,26.22,41.64,39.81,62.24c6.17,9.35,11.55,19.09,17.9,28.35
					c4.09,5.96,7.16,12.38,11.59,18.16c0.81,1.05,1.43,2.3,3.1,2.63c0,7.89,0,15.78,0.01,23.67c-3.04-1.2-3.71-3.94-5.1-6.09
					c-9.59-14.91-18.98-29.91-28.47-44.87c-7.02-11.07-14.1-22.11-21.13-33.17c-10.23-16.07-20.91-31.94-30.67-48.23
					C954.09,378.73,953.37,377.85,952.27,377.24z"/>
				<path class="st24" d="M665.34,402.08c-0.3-0.19-0.6-0.39-0.9-0.58c0.52-2.99,3.18-2.5,5.29-2.06
					c5.16,1.08,10.02,2.93,14.61,5.23c5.48,2.75,11.06,5.26,17.86,5.88c-1.44,1.72-3.3,1.64-4.95,1.3
					c-4.82-0.96-9.54-2.14-13.79-4.5C677.96,404.31,671.92,402.48,665.34,402.08z"/>
				<path class="st18" d="M730.86,403.69c-14.32-8.07-31.46-9.75-46.67-15.33C692.04,386.65,725.42,397.4,730.86,403.69z"/>
				<path class="st16" d="M641.16,390.48c-15.1,4.77-30.9,7.15-46.23,11C609.72,395.88,625.39,392.93,641.16,390.48z"/>
				<path class="st25" d="M752.19,420.72c-5.94-4.49-11.83-9.05-17.23-14.59C738.28,407.22,748.82,415.94,752.19,420.72z"/>
				<path class="st26" d="M602.19,407.17c-3.29,1.27-6.15,2.88-10.45,1.85C595.31,407.43,598.03,405.3,602.19,407.17z"/>
				<path class="st27" d="M655.06,376.06c5.74-0.65,11.49-0.81,17.27-0.52c0.26,0.58,0.47,1.16-0.18,1.66
					c-1.98-2.18-4.63-1.03-7-0.94C661.77,376.4,658.4,377.25,655.06,376.06z"/>
				<path class="st28" d="M628.71,384.72c-3.12,1.62-6.49,2.43-10.02,2.84C621.67,385.66,625.35,385.52,628.71,384.72z"/>
				<path class="st28" d="M589.43,400.97c1.69-1.69,4.1-2.3,6.35-3.17C594.41,399.9,591.79,400.26,589.43,400.97z"/>
				<path class="st29" d="M613.9,389.91c-2.03,0.68-4.07,1.36-6.1,2.05c1.61-1.56,3.71-2.11,5.75-2.77
					C613.67,389.43,613.78,389.67,613.9,389.91z"/>
			</g>
		</g>
	</g>
</g>
<g id="Слой_1">
	
		<linearGradient id="SVGID_1_" gradientUnits="userSpaceOnUse" x1="1680.5034" y1="992.7728" x2="1762.3043" y2="1074.5736" gradientTransform="matrix(-1.0937 2.348391e-05 6.100225e-05 -1.223 2506.3748 1663.4615)">
		<stop  offset="0" style="stop-color:#E6E6E6"/>
		<stop  offset="0.1914" style="stop-color:#EEEEEE"/>
		<stop  offset="0.6021" style="stop-color:#FBFBFB"/>
		<stop  offset="1" style="stop-color:#FFFFFF"/>
	</linearGradient>
	<line class="st30" x1="659.67" y1="457.32" x2="587.93" y2="341.52"/>
	
		<linearGradient id="SVGID_2_" gradientUnits="userSpaceOnUse" x1="1605.4923" y1="958.2241" x2="1661.6427" y2="1014.3746" gradientTransform="matrix(-1.0937 2.348391e-05 6.100225e-05 -1.223 2506.3748 1663.4615)">
		<stop  offset="0" style="stop-color:#E6E6E6"/>
		<stop  offset="0.1914" style="stop-color:#EEEEEE"/>
		<stop  offset="0.6021" style="stop-color:#FBFBFB"/>
		<stop  offset="1" style="stop-color:#FFFFFF"/>
	</linearGradient>
	<line class="st31" x1="780" y1="457.32" x2="659.67" y2="457.32"/>
	
		<linearGradient id="SVGID_3_" gradientUnits="userSpaceOnUse" x1="1562.5221" y1="980.8457" x2="1573.3228" y2="991.6464" gradientTransform="matrix(-1.0937 2.348391e-05 6.100225e-05 -1.223 2506.3748 1663.4615)">
		<stop  offset="0" style="stop-color:#E6E6E6"/>
		<stop  offset="0.1914" style="stop-color:#EEEEEE"/>
		<stop  offset="0.6021" style="stop-color:#FBFBFB"/>
		<stop  offset="1" style="stop-color:#FFFFFF"/>
	</linearGradient>
	<line class="st32" x1="803.15" y1="457.32" x2="780" y2="457.32"/>
	
		<linearGradient id="SVGID_4_" gradientUnits="userSpaceOnUse" x1="1557.3282" y1="986.2333" x2="1557.3282" y2="986.2333" gradientTransform="matrix(-1.0937 2.348391e-05 6.100225e-05 -1.223 2506.3748 1663.4615)">
		<stop  offset="0" style="stop-color:#E6E6E6"/>
		<stop  offset="0.1914" style="stop-color:#EEEEEE"/>
		<stop  offset="0.6021" style="stop-color:#FBFBFB"/>
		<stop  offset="1" style="stop-color:#FFFFFF"/>
	</linearGradient>
	<path class="st33" d="M803.15,457.32"/>
	
		<linearGradient id="SVGID_5_" gradientUnits="userSpaceOnUse" x1="1493.014" y1="1078.1862" x2="1493.7557" y2="1078.928" gradientTransform="matrix(-1.0937 2.348391e-05 6.100225e-05 -1.223 2506.3748 1663.4615)">
		<stop  offset="0" style="stop-color:#E6E6E6"/>
		<stop  offset="0.1914" style="stop-color:#EEEEEE"/>
		<stop  offset="0.6021" style="stop-color:#FBFBFB"/>
		<stop  offset="1" style="stop-color:#FFFFFF"/>
	</linearGradient>
	<line class="st34" x1="874.88" y1="341.51" x2="871.3" y2="347.29"/>
	<g class="st35">
		
			<linearGradient id="SVGID_6_" gradientUnits="userSpaceOnUse" x1="2078.3074" y1="1184.2566" x2="2242.0947" y2="1348.0438" gradientTransform="matrix(-1.0937 2.348391e-05 6.100225e-05 -1.223 2506.3748 1663.4615)">
			<stop  offset="0" style="stop-color:#E6E6E6"/>
			<stop  offset="0.1914" style="stop-color:#EEEEEE"/>
			<stop  offset="0.6021" style="stop-color:#FBFBFB"/>
			<stop  offset="1" style="stop-color:#FFFFFF"/>
		</linearGradient>
		<polygon class="st36" points="215.93,-0.59 287.85,115.22 215.93,231.03 72.07,231.03 0.15,115.23 72.07,-0.58 		"/>
		
			<linearGradient id="SVGID_7_" gradientUnits="userSpaceOnUse" x1="1880.8119" y1="1089.4056" x2="2044.5991" y2="1253.1929" gradientTransform="matrix(-1.0937 2.348391e-05 6.100225e-05 -1.223 2506.3748 1663.4615)">
			<stop  offset="0" style="stop-color:#E6E6E6"/>
			<stop  offset="0.1914" style="stop-color:#EEEEEE"/>
			<stop  offset="0.6021" style="stop-color:#FBFBFB"/>
			<stop  offset="1" style="stop-color:#FFFFFF"/>
		</linearGradient>
		<polygon class="st37" points="431.93,115.41 503.85,231.22 431.93,347.03 288.07,347.03 216.15,231.23 288.07,115.42 		"/>
		
			<linearGradient id="SVGID_8_" gradientUnits="userSpaceOnUse" x1="2078.2969" y1="994.5622" x2="2242.0842" y2="1158.3494" gradientTransform="matrix(-1.0937 2.348391e-05 6.100225e-05 -1.223 2506.3748 1663.4615)">
			<stop  offset="0" style="stop-color:#E6E6E6"/>
			<stop  offset="0.1914" style="stop-color:#EEEEEE"/>
			<stop  offset="0.6021" style="stop-color:#FBFBFB"/>
			<stop  offset="1" style="stop-color:#FFFFFF"/>
		</linearGradient>
		<polygon class="st38" points="215.93,231.41 287.85,347.22 215.93,463.03 72.07,463.03 0.15,347.23 72.07,231.42 		"/>
		
			<linearGradient id="SVGID_9_" gradientUnits="userSpaceOnUse" x1="1880.8014" y1="899.7112" x2="2044.5886" y2="1063.4984" gradientTransform="matrix(-1.0937 2.348391e-05 6.100225e-05 -1.223 2506.3748 1663.4615)">
			<stop  offset="0" style="stop-color:#E6E6E6"/>
			<stop  offset="0.1914" style="stop-color:#EEEEEE"/>
			<stop  offset="0.6021" style="stop-color:#FBFBFB"/>
			<stop  offset="1" style="stop-color:#FFFFFF"/>
		</linearGradient>
		<polygon class="st39" points="431.93,347.41 503.85,463.22 431.93,579.03 288.07,579.03 216.15,463.23 288.07,347.42 		"/>
		
			<linearGradient id="SVGID_10_" gradientUnits="userSpaceOnUse" x1="2078.2864" y1="804.8677" x2="2242.0735" y2="968.655" gradientTransform="matrix(-1.0937 2.348391e-05 6.100225e-05 -1.223 2506.3748 1663.4615)">
			<stop  offset="0" style="stop-color:#E6E6E6"/>
			<stop  offset="0.1914" style="stop-color:#EEEEEE"/>
			<stop  offset="0.6021" style="stop-color:#FBFBFB"/>
			<stop  offset="1" style="stop-color:#FFFFFF"/>
		</linearGradient>
		<polygon class="st40" points="215.93,463.41 287.85,579.22 215.93,695.03 72.07,695.03 0.15,579.23 72.07,463.42 		"/>
		
			<linearGradient id="SVGID_11_" gradientUnits="userSpaceOnUse" x1="1880.7908" y1="710.0168" x2="2044.578" y2="873.804" gradientTransform="matrix(-1.0937 2.348391e-05 6.100225e-05 -1.223 2506.3748 1663.4615)">
			<stop  offset="0" style="stop-color:#E6E6E6"/>
			<stop  offset="0.1914" style="stop-color:#EEEEEE"/>
			<stop  offset="0.6021" style="stop-color:#FBFBFB"/>
			<stop  offset="1" style="stop-color:#FFFFFF"/>
		</linearGradient>
		<polygon class="st41" points="431.93,579.41 503.85,695.22 431.93,811.03 288.07,811.03 216.15,695.23 288.07,579.42 		"/>
		
			<linearGradient id="SVGID_12_" gradientUnits="userSpaceOnUse" x1="2078.2756" y1="615.4017" x2="2242.063" y2="779.189" gradientTransform="matrix(-1.0937 2.348391e-05 6.100225e-05 -1.223 2506.3748 1663.4615)">
			<stop  offset="0" style="stop-color:#E6E6E6"/>
			<stop  offset="0.1914" style="stop-color:#EEEEEE"/>
			<stop  offset="0.6021" style="stop-color:#FBFBFB"/>
			<stop  offset="1" style="stop-color:#FFFFFF"/>
		</linearGradient>
		<polygon class="st42" points="215.93,695.14 287.85,810.94 215.93,926.75 72.07,926.75 0.15,810.95 72.07,695.14 		"/>
		
			<linearGradient id="SVGID_13_" gradientUnits="userSpaceOnUse" x1="1888.1479" y1="542.4921" x2="2037.1696" y2="691.5137" gradientTransform="matrix(-1.0937 2.348391e-05 6.100225e-05 -1.223 2506.3748 1663.4615)">
			<stop  offset="0" style="stop-color:#E6E6E6"/>
			<stop  offset="0.1914" style="stop-color:#EEEEEE"/>
			<stop  offset="0.6021" style="stop-color:#FBFBFB"/>
			<stop  offset="1" style="stop-color:#FFFFFF"/>
		</linearGradient>
		<polyline class="st43" points="216.15,926.81 288.07,811 431.93,811 503.85,926.8 		"/>
		
			<linearGradient id="SVGID_14_" gradientUnits="userSpaceOnUse" x1="1888.1853" y1="1271.6151" x2="2037.2032" y2="1420.6331" gradientTransform="matrix(-1.0937 2.348391e-05 6.100225e-05 -1.223 2506.3748 1663.4615)">
			<stop  offset="0" style="stop-color:#E6E6E6"/>
			<stop  offset="0.1914" style="stop-color:#EEEEEE"/>
			<stop  offset="0.6021" style="stop-color:#FBFBFB"/>
			<stop  offset="1" style="stop-color:#FFFFFF"/>
		</linearGradient>
		<polyline class="st44" points="503.85,-0.31 431.93,115.5 288.07,115.5 216.15,-0.3 		"/>
	</g>
	<g class="st35">
		
			<linearGradient id="SVGID_15_" gradientUnits="userSpaceOnUse" x1="2082.8789" y1="1184.2567" x2="2246.6663" y2="1348.0439" gradientTransform="matrix(1.0937 2.348391e-05 -6.100225e-05 -1.223 -592.3748 1663.4615)">
			<stop  offset="0" style="stop-color:#E6E6E6"/>
			<stop  offset="0.1914" style="stop-color:#EEEEEE"/>
			<stop  offset="0.6021" style="stop-color:#FBFBFB"/>
			<stop  offset="1" style="stop-color:#FFFFFF"/>
		</linearGradient>
		<polygon class="st45" points="1703.07,-0.59 1631.15,115.22 1703.07,231.03 1846.93,231.03 1918.85,115.23 1846.93,-0.58 		"/>
		
			<linearGradient id="SVGID_16_" gradientUnits="userSpaceOnUse" x1="1885.3834" y1="1089.4056" x2="2049.1707" y2="1253.1929" gradientTransform="matrix(1.0937 2.348391e-05 -6.100225e-05 -1.223 -592.3748 1663.4615)">
			<stop  offset="0" style="stop-color:#E6E6E6"/>
			<stop  offset="0.1914" style="stop-color:#EEEEEE"/>
			<stop  offset="0.6021" style="stop-color:#FBFBFB"/>
			<stop  offset="1" style="stop-color:#FFFFFF"/>
		</linearGradient>
		<polygon class="st46" points="1487.07,115.41 1415.15,231.22 1487.07,347.03 1630.93,347.03 1702.85,231.23 1630.93,115.42 		"/>
		
			<linearGradient id="SVGID_17_" gradientUnits="userSpaceOnUse" x1="2082.8684" y1="994.5623" x2="2246.6558" y2="1158.3495" gradientTransform="matrix(1.0937 2.348391e-05 -6.100225e-05 -1.223 -592.3748 1663.4615)">
			<stop  offset="0" style="stop-color:#E6E6E6"/>
			<stop  offset="0.1914" style="stop-color:#EEEEEE"/>
			<stop  offset="0.6021" style="stop-color:#FBFBFB"/>
			<stop  offset="1" style="stop-color:#FFFFFF"/>
		</linearGradient>
		<polygon class="st47" points="1703.07,231.41 1631.15,347.22 1703.07,463.03 1846.93,463.03 1918.85,347.23 1846.93,231.42 		"/>
		
			<linearGradient id="SVGID_18_" gradientUnits="userSpaceOnUse" x1="1885.3729" y1="899.7112" x2="2049.1602" y2="1063.4985" gradientTransform="matrix(1.0937 2.348391e-05 -6.100225e-05 -1.223 -592.3748 1663.4615)">
			<stop  offset="0" style="stop-color:#E6E6E6"/>
			<stop  offset="0.1914" style="stop-color:#EEEEEE"/>
			<stop  offset="0.6021" style="stop-color:#FBFBFB"/>
			<stop  offset="1" style="stop-color:#FFFFFF"/>
		</linearGradient>
		<polygon class="st48" points="1487.07,347.41 1415.15,463.22 1487.07,579.03 1630.93,579.03 1702.85,463.23 1630.93,347.42 		"/>
		
			<linearGradient id="SVGID_19_" gradientUnits="userSpaceOnUse" x1="2082.8579" y1="804.8679" x2="2246.645" y2="968.6551" gradientTransform="matrix(1.0937 2.348391e-05 -6.100225e-05 -1.223 -592.3748 1663.4615)">
			<stop  offset="0" style="stop-color:#E6E6E6"/>
			<stop  offset="0.1914" style="stop-color:#EEEEEE"/>
			<stop  offset="0.6021" style="stop-color:#FBFBFB"/>
			<stop  offset="1" style="stop-color:#FFFFFF"/>
		</linearGradient>
		<polygon class="st49" points="1703.07,463.41 1631.15,579.22 1703.07,695.03 1846.93,695.03 1918.85,579.23 1846.93,463.42 		"/>
		
			<linearGradient id="SVGID_20_" gradientUnits="userSpaceOnUse" x1="1885.3623" y1="710.0168" x2="2049.1497" y2="873.8041" gradientTransform="matrix(1.0937 2.348391e-05 -6.100225e-05 -1.223 -592.3748 1663.4615)">
			<stop  offset="0" style="stop-color:#E6E6E6"/>
			<stop  offset="0.1914" style="stop-color:#EEEEEE"/>
			<stop  offset="0.6021" style="stop-color:#FBFBFB"/>
			<stop  offset="1" style="stop-color:#FFFFFF"/>
		</linearGradient>
		<polygon class="st50" points="1487.07,579.41 1415.15,695.22 1487.07,811.03 1630.93,811.03 1702.85,695.23 1630.93,579.42 		"/>
		
			<linearGradient id="SVGID_21_" gradientUnits="userSpaceOnUse" x1="2082.8472" y1="615.4018" x2="2246.6345" y2="779.189" gradientTransform="matrix(1.0937 2.348391e-05 -6.100225e-05 -1.223 -592.3748 1663.4615)">
			<stop  offset="0" style="stop-color:#E6E6E6"/>
			<stop  offset="0.1914" style="stop-color:#EEEEEE"/>
			<stop  offset="0.6021" style="stop-color:#FBFBFB"/>
			<stop  offset="1" style="stop-color:#FFFFFF"/>
		</linearGradient>
		<polygon class="st51" points="1703.07,695.14 1631.15,810.94 1703.07,926.75 1846.93,926.75 1918.85,810.95 1846.93,695.14 		"/>
		
			<linearGradient id="SVGID_22_" gradientUnits="userSpaceOnUse" x1="1892.7195" y1="542.4922" x2="2041.7411" y2="691.5138" gradientTransform="matrix(1.0937 2.348391e-05 -6.100225e-05 -1.223 -592.3748 1663.4615)">
			<stop  offset="0" style="stop-color:#E6E6E6"/>
			<stop  offset="0.1914" style="stop-color:#EEEEEE"/>
			<stop  offset="0.6021" style="stop-color:#FBFBFB"/>
			<stop  offset="1" style="stop-color:#FFFFFF"/>
		</linearGradient>
		<polyline class="st52" points="1702.85,926.81 1630.93,811 1487.07,811 1415.15,926.8 		"/>
		
			<linearGradient id="SVGID_23_" gradientUnits="userSpaceOnUse" x1="1892.7568" y1="1271.6152" x2="2041.7748" y2="1420.6332" gradientTransform="matrix(1.0937 2.348391e-05 -6.100225e-05 -1.223 -592.3748 1663.4615)">
			<stop  offset="0" style="stop-color:#E6E6E6"/>
			<stop  offset="0.1914" style="stop-color:#EEEEEE"/>
			<stop  offset="0.6021" style="stop-color:#FBFBFB"/>
			<stop  offset="1" style="stop-color:#FFFFFF"/>
		</linearGradient>
		<polyline class="st53" points="1415.15,-0.31 1487.07,115.5 1630.93,115.5 1702.85,-0.3 		"/>
	</g>
</g>
</svg>
